<svg id="레이어_1" data-name="레이어 1" xmlns="http://www.w3.org/2000/svg" viewBox="0 0 220.02 47.89"><defs><style>.cls-1{fill:#231815;stroke:#fff;stroke-miterlimit:10;}</style></defs><path class="cls-1" d="M37,157.13a.91.91,0,0,0,.68.25H56.76a1.49,1.49,0,0,1,1.11.46,2.14,2.14,0,0,1,0,2.65,1.49,1.49,0,0,1-1.11.46H37.11a4.26,4.26,0,0,1-2.08-.43,3.12,3.12,0,0,1-1.19-1.11,3.84,3.84,0,0,1-.51-1.54,14.19,14.19,0,0,1-.11-1.72V120.29a14.35,14.35,0,0,1,.11-1.73,4,4,0,0,1,.51-1.54A3.12,3.12,0,0,1,35,115.91a4.38,4.38,0,0,1,2.08-.43H55.68a1.53,1.53,0,0,1,1.11.46,1.79,1.79,0,0,1,.46,1.33,1.75,1.75,0,0,1-.46,1.32,1.5,1.5,0,0,1-1.11.47h-18a.94.94,0,0,0-.68.24,1.48,1.48,0,0,0-.24,1v15.46h19a1.5,1.5,0,0,1,1.11.47,2.12,2.12,0,0,1,0,2.64,1.5,1.5,0,0,1-1.11.47h-19v16.82A1.43,1.43,0,0,0,37,157.13Z" transform="translate(-32.72 -114.37)"/><path class="cls-1" d="M74.21,142.9l9.23-12.38a1.4,1.4,0,0,1,1.16-.65,2,2,0,0,1,1.22.58,2.47,2.47,0,0,1,.67,1.3,1.72,1.72,0,0,1-.4,1.42L76.53,146,86,158.49a1.71,1.71,0,0,1,.48,1.42,1.89,1.89,0,0,1-.7,1.23,1.86,1.86,0,0,1-1.19.61,1.34,1.34,0,0,1-1.18-.61l-9.18-12.08-9.13,12.08a1.35,1.35,0,0,1-1.19.61,1.89,1.89,0,0,1-1.19-.61,1.94,1.94,0,0,1-.7-1.23,1.72,1.72,0,0,1,.49-1.42L71.88,146,62.6,133.23a1.72,1.72,0,0,1-.41-1.42,2.46,2.46,0,0,1,.68-1.29,1.92,1.92,0,0,1,1.21-.59,1.42,1.42,0,0,1,1.16.65Z" transform="translate(-32.72 -114.37)"/><path class="cls-1" d="M102.29,135.08v24a1.69,1.69,0,0,1-1.79,1.85,1.73,1.73,0,0,1-1.24-.46,1.85,1.85,0,0,1-.48-1.39v-24H89.33a1.49,1.49,0,0,1-1.11-.47,1.77,1.77,0,0,1-.46-1.32,1.79,1.79,0,0,1,.46-1.33,1.52,1.52,0,0,1,1.11-.46h9.45V116.71a1.84,1.84,0,0,1,.48-1.38,1.73,1.73,0,0,1,1.24-.46,1.8,1.8,0,0,1,1.27.46,1.78,1.78,0,0,1,.52,1.38V131.5h8.8a1.51,1.51,0,0,1,1.1.46,1.79,1.79,0,0,1,.46,1.33,1.77,1.77,0,0,1-.46,1.32,1.48,1.48,0,0,1-1.1.47Z" transform="translate(-32.72 -114.37)"/><path class="cls-1" d="M116.43,118.93a3.91,3.91,0,0,1,1.11-3.11,3.76,3.76,0,0,1,2.51-.95h19.17c1.73,0,2.93.38,3.59,1.14a3.75,3.75,0,0,1,1,2.55,4,4,0,0,1-1,2.75c-.66.76-1.86,1.13-3.59,1.13H125.77v12h13a3.65,3.65,0,0,1,4.05,3.82,4.07,4.07,0,0,1-.92,2.49,3.71,3.71,0,0,1-3.13,1.2h-13v14.91a4.82,4.82,0,0,1-.43,2.13,4.62,4.62,0,0,1-1.1,1.48,4.34,4.34,0,0,1-1.52.86,5,5,0,0,1-1.64.28,4.85,4.85,0,0,1-1.62-.28,4.39,4.39,0,0,1-1.49-.86,4.48,4.48,0,0,1-1.1-1.48,4.82,4.82,0,0,1-.44-2.13Z" transform="translate(-32.72 -114.37)"/><path class="cls-1" d="M187.6,144.44v11.89a6.39,6.39,0,0,1-1,3.91c-.66.89-1.89,1.33-3.69,1.33a4.55,4.55,0,0,1-3.19-1.08,3.93,3.93,0,0,1-1.19-3.05V135.32a5,5,0,0,1,.38-2,3.75,3.75,0,0,1,1-1.42,4.28,4.28,0,0,1,1.45-.83,5,5,0,0,1,1.68-.28,5.43,5.43,0,0,1,2.21.46A3.38,3.38,0,0,1,186.9,133a8.6,8.6,0,0,1,3.24-2,12.37,12.37,0,0,1,3.94-.62h3.14a5.15,5.15,0,0,1,3,.87,4.06,4.06,0,0,1,0,5.79,5.32,5.32,0,0,1-3,.8h-2.81a9.76,9.76,0,0,0-2.46.31,5.88,5.88,0,0,0-2.18,1.05,5.56,5.56,0,0,0-1.6,2A7.22,7.22,0,0,0,187.6,144.44Z" transform="translate(-32.72 -114.37)"/><path class="cls-1" d="M204.29,135.38a4.1,4.1,0,0,1,1.43-3.45,5.11,5.11,0,0,1,3.21-1.11,3.87,3.87,0,0,1,3.89,2.59,5.94,5.94,0,0,1,3-2.37,12.15,12.15,0,0,1,3.83-.59q6.31,0,9.77,4.19,3.09-4.19,9.08-4.19a17.42,17.42,0,0,1,5.5.84,11.83,11.83,0,0,1,4.35,2.46,11.35,11.35,0,0,1,2.84,4,14.07,14.07,0,0,1,1,5.54v13.74a5.26,5.26,0,0,1-.92,3.3c-.61.8-1.8,1.2-3.56,1.2a5,5,0,0,1-3.35-1.11,4.08,4.08,0,0,1-1.29-3.27v-14a5.47,5.47,0,0,0-1.33-3.88,4.79,4.79,0,0,0-3.7-1.42,5,5,0,0,0-3.8,1.45,5.6,5.6,0,0,0-1.38,4v14a4.29,4.29,0,0,1-1,3.14c-.68.7-1.9,1-3.67,1q-4.49,0-4.48-4.13V143.21a5.39,5.39,0,0,0-1.35-3.88,4.75,4.75,0,0,0-3.62-1.42c-1.94,0-3.3.55-4.08,1.66a7.54,7.54,0,0,0-1.16,4.38v12.38a6.06,6.06,0,0,1-1.08,3.91,4.46,4.46,0,0,1-3.67,1.33,4.74,4.74,0,0,1-3.27-1.08,3.87,3.87,0,0,1-1.21-3.05Z" transform="translate(-32.72 -114.37)"/><path class="cls-1" d="M164.41,150.92v9.66H148.1a1.6,1.6,0,0,1-1.49-1.71V130.45a1.6,1.6,0,0,1,1.49-1.71h24.72a1.6,1.6,0,0,1,1.48,1.71v18.76h-8.41A1.62,1.62,0,0,0,164.41,150.92Zm3.4,9.16a1.39,1.39,0,0,1-1.05.5h-.37v-9.1h7.91v.44a1.87,1.87,0,0,1-.43,1.2Z" transform="translate(-32.72 -114.37)"/></svg>